<?xml version="1.0" encoding="utf-8"?>
<!-- Generator: Adobe Illustrator 24.0.1, SVG Export Plug-In . SVG Version: 6.00 Build 0)  -->
<svg version="1.1" id="Layer_1" xmlns="http://www.w3.org/2000/svg" xmlns:xlink="http://www.w3.org/1999/xlink" x="0px" y="0px"
	 viewBox="0 0 57 74" style="enable-background:new 0 0 57 74;" xml:space="preserve">
<style type="text/css">
	.st0{fill:url(#SVGID_1_);stroke:#000000;stroke-width:0.3467;stroke-miterlimit:10;}
	.st1{fill:#F95D26;stroke:#000000;stroke-width:0.6934;stroke-miterlimit:10;}
	.st2{opacity:0.27;fill:#FFFFFF;}
</style>
<g>
	<g>
		<linearGradient id="SVGID_1_" gradientUnits="userSpaceOnUse" x1="0.2627" y1="38.2099" x2="56.2095" y2="38.2099">
			<stop  offset="0" style="stop-color:#FF931E"/>
			<stop  offset="1" style="stop-color:#C1272D"/>
		</linearGradient>
		<path class="st0" d="M53.64,10.33c0,0-27.09,40.32-38.55,42.95C14.8,41.34,45.75,4.58,45.75,4.58L43.67,2.5
			c0,0-31.9,34.67-35.36,50.62C6.74,60.34,4.75,65.42,3,68.2l-2.71,3.79c-0.3-0.15,2.2,1.34,1.78,1.93l2.77-4.16
			c2.8-2.58,5.98-6.58,12.46-10.06c14.37-7.73,38.91-47.95,38.91-47.95L53.64,10.33z"/>
		<path class="st1" d="M2.07,76"/>
	</g>
	<path class="st2" d="M46.37,24.58c0,0-30.09,34.43-34.25,35.82C12.12,60.4,24.61,60.4,46.37,24.58z"/>
</g>
</svg>
