<?xml version="1.0" encoding="utf-8"?>
<!-- Generator: Adobe Illustrator 23.0.4, SVG Export Plug-In . SVG Version: 6.00 Build 0)  -->
<svg version="1.1" id="Layer_1" xmlns="http://www.w3.org/2000/svg" xmlns:xlink="http://www.w3.org/1999/xlink" x="0px" y="0px"
	 viewBox="0 0 781 142" style="enable-background:new 0 0 781 142;" xml:space="preserve">
<style type="text/css">
	.st0{fill:#030C2F;stroke:#00F9FF;stroke-width:2;stroke-miterlimit:10;}
	.st1{fill:#030C2F;stroke:#00FFFF;stroke-width:2;stroke-miterlimit:10;}
	.st2{font-family:'DMSans-Bold';}
	.st3{font-size:137.7475px;}
</style>
<g>
	<path class="st0" d="M41.04,108.34c-7.07,0-13.32-1.22-18.73-3.65c-5.42-2.43-9.69-5.92-12.81-10.47
		c-3.12-4.55-4.73-10.08-4.82-16.6h18.6c0.18,4.5,1.81,8.29,4.89,11.36c3.08,3.08,7.32,4.61,12.74,4.61c4.68,0,8.4-1.12,11.16-3.37
		c2.75-2.25,4.13-5.26,4.13-9.02c0-3.95-1.22-7.03-3.65-9.23c-2.43-2.2-5.67-3.99-9.71-5.37c-4.04-1.38-8.36-2.85-12.95-4.41
		c-7.44-2.57-13.11-5.88-17.01-9.92c-3.9-4.04-5.85-9.41-5.85-16.12c-0.09-5.69,1.26-10.58,4.06-14.67c2.8-4.09,6.63-7.25,11.5-9.5
		c4.87-2.25,10.47-3.37,16.81-3.37c6.43,0,12.1,1.15,17.01,3.44c4.91,2.3,8.77,5.51,11.57,9.64c2.8,4.13,4.29,9.05,4.48,14.74H53.57
		c-0.09-3.4-1.4-6.41-3.93-9.02c-2.53-2.62-6.04-3.93-10.54-3.93c-3.86-0.09-7.09,0.85-9.71,2.82c-2.62,1.98-3.93,4.85-3.93,8.61
		c0,3.22,1.01,5.76,3.03,7.64c2.02,1.88,4.77,3.47,8.27,4.75c3.49,1.29,7.48,2.66,11.98,4.13c4.77,1.65,9.14,3.58,13.09,5.79
		c3.95,2.2,7.12,5.12,9.5,8.75c2.39,3.63,3.58,8.29,3.58,13.98c0,5.05-1.29,9.73-3.86,14.05c-2.57,4.32-6.38,7.78-11.43,10.4
		C54.58,107.04,48.38,108.34,41.04,108.34z"/>
	<path class="st0" d="M86.08,137V38.37h15.7l1.93,9.78c2.2-3.03,5.12-5.69,8.75-7.99c3.63-2.29,8.33-3.44,14.12-3.44
		c6.43,0,12.17,1.56,17.22,4.68c5.05,3.12,9.04,7.39,11.98,12.81c2.94,5.42,4.41,11.57,4.41,18.46c0,6.89-1.47,13.02-4.41,18.39
		c-2.94,5.37-6.93,9.6-11.98,12.67c-5.05,3.08-10.79,4.61-17.22,4.61c-5.14,0-9.64-0.96-13.5-2.89c-3.86-1.93-6.98-4.64-9.37-8.13
		V137H86.08z M122.86,92.92c5.6,0,10.24-1.88,13.91-5.65c3.67-3.76,5.51-8.63,5.51-14.6c0-5.97-1.84-10.88-5.51-14.74
		c-3.67-3.86-8.31-5.79-13.91-5.79c-5.69,0-10.35,1.91-13.98,5.72c-3.63,3.81-5.44,8.7-5.44,14.67c0,5.97,1.81,10.86,5.44,14.67
		C112.5,91.01,117.16,92.92,122.86,92.92z"/>
	<path class="st0" d="M204.81,108.34c-6.61,0-12.56-1.51-17.84-4.54c-5.28-3.03-9.46-7.23-12.53-12.6
		c-3.08-5.37-4.62-11.59-4.62-18.66c0-7.07,1.56-13.29,4.68-18.67c3.12-5.37,7.32-9.57,12.6-12.6c5.28-3.03,11.23-4.55,17.84-4.55
		c6.52,0,12.42,1.52,17.7,4.55c5.28,3.03,9.46,7.23,12.53,12.6c3.08,5.37,4.61,11.59,4.61,18.67c0,7.07-1.54,13.29-4.61,18.66
		c-3.08,5.37-7.28,9.57-12.6,12.6C217.26,106.83,211.33,108.34,204.81,108.34z M204.81,93.05c4.59,0,8.59-1.72,11.98-5.17
		c3.4-3.44,5.1-8.56,5.1-15.36c0-6.8-1.7-11.92-5.1-15.36c-3.4-3.44-7.35-5.17-11.85-5.17c-4.68,0-8.7,1.72-12.05,5.17
		c-3.35,3.44-5.03,8.56-5.03,15.36c0,6.8,1.67,11.92,5.03,15.36C196.25,91.33,200.22,93.05,204.81,93.05z"/>
	<path class="st0" d="M279.34,106.69c-7.16,0-12.9-1.74-17.22-5.23c-4.32-3.49-6.47-9.69-6.47-18.6V53.11h-11.71V38.37h11.71
		l2.07-18.32h15.57v18.32h18.46v14.74h-18.46V83c0,3.31,0.71,5.58,2.13,6.82c1.42,1.24,3.88,1.86,7.37,1.86h8.54v15.01H279.34z"/>
	<path class="st0" d="M312.53,27.76c-3.22,0-5.85-0.96-7.92-2.89c-2.07-1.93-3.1-4.36-3.1-7.3c0-2.94,1.03-5.35,3.1-7.23
		c2.07-1.88,4.7-2.82,7.92-2.82c3.21,0,5.85,0.94,7.92,2.82c2.07,1.88,3.1,4.29,3.1,7.23c0,2.94-1.03,5.37-3.1,7.3
		C318.39,26.8,315.75,27.76,312.53,27.76z M303.72,106.69V38.37h17.63v68.32H303.72z"/>
	<path class="st1" d="M422.87,38.37l-19.97,48.07l-19.15-48.07h-12.26h-6.89h-7.85v-7.99c0-2.85,0.64-4.87,1.93-6.06
		c1.29-1.19,3.44-1.79,6.47-1.79h4.82V7.51h-7.58c-7.16,0-12.83,1.75-17.01,5.23c-4.18,3.49-6.27,9.37-6.27,17.63v7.99h-9.37v14.74
		h9.37v53.58h17.63V53.11h13.99l20.44,49.04l0.69,2.54L379.48,137h18.73l43.39-98.63H422.87z"/>
</g>
<text transform="matrix(1 0 0 1 475.0703 108.4287)" class="st1 st2 st3">2018</text>
</svg>
