<?xml version="1.0" encoding="utf-8"?>
<!-- Generator: Adobe Illustrator 23.0.4, SVG Export Plug-In . SVG Version: 6.00 Build 0)  -->
<svg version="1.1" id="Layer_1" xmlns="http://www.w3.org/2000/svg" xmlns:xlink="http://www.w3.org/1999/xlink" x="0px" y="0px"
	 viewBox="0 0 367 112" style="enable-background:new 0 0 367 112;" xml:space="preserve">
<style type="text/css">
	.st0{fill:#002152;stroke:#00F9FF;stroke-miterlimit:10;}
	.st1{fill:#002152;stroke:#00FFFF;stroke-miterlimit:10;}
</style>
<g>
	<path class="st0" d="M37.24,86.47c-5.75,0-10.83-0.99-15.23-2.97c-4.41-1.98-7.88-4.82-10.42-8.51c-2.54-3.7-3.85-8.19-3.92-13.5
		h15.12c0.15,3.66,1.47,6.74,3.98,9.24c2.5,2.5,5.95,3.75,10.36,3.75c3.81,0,6.83-0.91,9.07-2.74c2.24-1.83,3.36-4.27,3.36-7.34
		c0-3.21-0.99-5.71-2.97-7.5c-1.98-1.79-4.61-3.25-7.9-4.37c-3.29-1.12-6.79-2.31-10.53-3.58c-6.05-2.09-10.66-4.78-13.83-8.06
		c-3.17-3.28-4.76-7.65-4.76-13.1c-0.08-4.63,1.03-8.6,3.3-11.93c2.28-3.32,5.39-5.9,9.35-7.73c3.96-1.83,8.51-2.74,13.66-2.74
		c5.23,0,9.84,0.93,13.83,2.8c3.99,1.87,7.13,4.48,9.41,7.84c2.28,3.36,3.49,7.36,3.64,11.98H47.43c-0.08-2.76-1.14-5.21-3.19-7.34
		c-2.05-2.13-4.91-3.19-8.57-3.19c-3.14-0.07-5.77,0.69-7.9,2.3c-2.13,1.61-3.19,3.94-3.19,7c0,2.61,0.82,4.69,2.46,6.22
		c1.64,1.53,3.88,2.82,6.72,3.86c2.84,1.05,6.08,2.17,9.74,3.36c3.88,1.34,7.43,2.91,10.64,4.7c3.21,1.79,5.79,4.16,7.73,7.11
		c1.94,2.95,2.91,6.74,2.91,11.37c0,4.11-1.05,7.92-3.14,11.42c-2.09,3.51-5.19,6.33-9.3,8.46C48.25,85.41,43.21,86.47,37.24,86.47z
		"/>
	<path class="st0" d="M73.86,109.77V29.58h12.77l1.57,7.95c1.79-2.46,4.16-4.63,7.11-6.5c2.95-1.87,6.78-2.8,11.48-2.8
		c5.23,0,9.89,1.27,14,3.81c4.11,2.54,7.35,6.01,9.74,10.42c2.39,4.41,3.58,9.41,3.58,15.01s-1.2,10.58-3.58,14.95
		c-2.39,4.37-5.64,7.8-9.74,10.3c-4.11,2.5-8.77,3.75-14,3.75c-4.18,0-7.84-0.78-10.98-2.35c-3.14-1.57-5.68-3.77-7.62-6.61v32.26
		H73.86z M103.77,73.93c4.55,0,8.32-1.53,11.31-4.59c2.99-3.06,4.48-7.02,4.48-11.87c0-4.85-1.49-8.85-4.48-11.98
		c-2.99-3.14-6.76-4.7-11.31-4.7c-4.63,0-8.42,1.55-11.37,4.65c-2.95,3.1-4.42,7.08-4.42,11.93c0,4.85,1.47,8.83,4.42,11.93
		C95.35,72.38,99.13,73.93,103.77,73.93z"/>
	<path class="st0" d="M170.4,86.47c-5.38,0-10.21-1.23-14.5-3.7c-4.29-2.46-7.69-5.88-10.19-10.25c-2.5-4.37-3.75-9.43-3.75-15.18
		c0-5.75,1.27-10.81,3.81-15.18c2.54-4.37,5.95-7.78,10.25-10.25c4.29-2.46,9.13-3.7,14.5-3.7c5.3,0,10.1,1.23,14.39,3.7
		c4.29,2.46,7.69,5.88,10.19,10.25c2.5,4.37,3.75,9.43,3.75,15.18c0,5.75-1.25,10.81-3.75,15.18c-2.5,4.37-5.92,7.78-10.25,10.25
		C180.52,85.24,175.71,86.47,170.4,86.47z M170.4,74.04c3.73,0,6.98-1.4,9.74-4.2c2.76-2.8,4.14-6.96,4.14-12.49
		c0-5.52-1.38-9.69-4.14-12.49c-2.76-2.8-5.97-4.2-9.63-4.2c-3.81,0-7.08,1.4-9.8,4.2c-2.73,2.8-4.09,6.96-4.09,12.49
		c0,5.53,1.36,9.69,4.09,12.49C163.44,72.64,166.67,74.04,170.4,74.04z"/>
	<path class="st0" d="M231,85.13c-5.82,0-10.49-1.42-14-4.26c-3.51-2.84-5.26-7.88-5.26-15.12V41.56h-9.52V29.58h9.52l1.68-14.9
		h12.66v14.9h15.01v11.98h-15.01v24.3c0,2.69,0.58,4.54,1.74,5.54c1.16,1.01,3.15,1.51,5.99,1.51h6.94v12.21H231z"/>
	<path class="st0" d="M257.99,20.96c-2.61,0-4.76-0.78-6.44-2.35c-1.68-1.57-2.52-3.55-2.52-5.94c0-2.39,0.84-4.35,2.52-5.88
		c1.68-1.53,3.83-2.3,6.44-2.3c2.61,0,4.76,0.77,6.44,2.3c1.68,1.53,2.52,3.49,2.52,5.88c0,2.39-0.84,4.37-2.52,5.94
		C262.75,20.17,260.6,20.96,257.99,20.96z M250.82,85.13V29.58h14.34v55.55H250.82z"/>
	<path class="st1" d="M347.7,29.58l-16.24,39.09l-15.57-39.09h-9.97h-5.6h-6.38v-6.5c0-2.31,0.52-3.96,1.57-4.93
		c1.04-0.97,2.8-1.46,5.26-1.46h3.92V4.49h-6.16c-5.82,0-10.44,1.42-13.83,4.26c-3.4,2.84-5.1,7.62-5.1,14.34v6.5h-7.62v11.98h7.62
		v43.57h14.34V41.56h11.38l16.62,39.87l0.56,2.07l-10.08,26.27h15.23l35.28-80.19H347.7z"/>
</g>
</svg>
