<?xml version="1.0" encoding="UTF-8"?>
<svg id="Layer_1" data-name="Layer 1" xmlns="http://www.w3.org/2000/svg" viewBox="0 0 92.18 25.45">
  <defs>
    <style>
      .cls-1 {
        fill: #838383;
      }
    </style>
  </defs>
  <path class="cls-1" d="M23.71,.62c-1.22-.6-2.69-.1-3.28,1.12l-7.89,16.07L4.65,1.74C4.05,.52,2.58,.02,1.37,.62,.15,1.22-.35,2.69,.25,3.9L10.16,24.08c.43,.87,1.3,1.37,2.2,1.37,.06,0,.12-.01,.18-.01s.12,.01,.18,.01c.91,0,1.78-.5,2.2-1.37L24.83,3.9c.6-1.21,.1-2.68-1.12-3.28Z"/>
  <path class="cls-1" d="M38.04,1.74c-.45-.93-1.42-1.44-2.39-1.36-.97-.07-1.93,.44-2.39,1.36l-9.91,20.18c-.6,1.22-.1,2.69,1.12,3.28,.35,.17,.72,.25,1.08,.25,.91,0,1.78-.5,2.2-1.37l2.6-5.3h10.41s.1,0,.16-.01l2.61,5.31c.43,.87,1.3,1.37,2.2,1.37,.36,0,.73-.08,1.08-.25,1.22-.6,1.72-2.07,1.12-3.28L38.04,1.74Zm-5.26,12.13l2.87-5.86,2.87,5.86h-5.74Z"/>
  <path class="cls-1" d="M65.19,20.18h-8.19V2.46C57,1.1,55.9,0,54.55,0s-2.45,1.1-2.45,2.45V25.09h13.09c1.36,0,2.45-1.1,2.45-2.45s-1.09-2.46-2.45-2.46Z"/>
  <path class="cls-1" d="M80.09,0h0c-3.23,0-6.27,1.26-8.55,3.54-1.86,1.86-3.04,4.23-3.42,6.79-.68,3.36-.13,6.95,1.82,9.73,2.27,3.23,5.71,4.93,9.32,4.93,2.42,0,4.9-.76,7.15-2.34,1.11-.78,1.38-2.31,.6-3.42s-2.31-1.38-3.42-.6c-3.36,2.36-7.41,1.77-9.63-1.39-.45-.64-.76-1.38-.95-2.17h19.02s.13-2.31,.13-2.31c.01-.22,.02-.44,.02-.66h0c0-6.67-5.42-12.1-12.09-12.1Zm-6.8,10.17c.53-1.6,1.48-3.03,2.78-3.95,.12-.08,.22-.18,.32-.27,1.11-.67,2.37-1.03,3.7-1.03h0c3.29,0,6.08,2.23,6.92,5.26h-13.72Z"/>
</svg>