<?xml version="1.0" encoding="utf-8"?>
<!-- Generator: Adobe Illustrator 27.0.0, SVG Export Plug-In . SVG Version: 6.00 Build 0)  -->
<svg version="1.1" id="Layer_1" xmlns="http://www.w3.org/2000/svg" xmlns:xlink="http://www.w3.org/1999/xlink" x="0px" y="0px"
	 viewBox="0 0 51 23" style="enable-background:new 0 0 51 23;" xml:space="preserve">
<style type="text/css">
	.st0{fill:#241F30;}
</style>
<g>
	<path class="st0" d="M19.48,3.64c-0.17-0.35-0.44-0.64-0.8-0.83c-0.87-0.44-1.93-0.07-2.36,0.83l-5.33,11.19L5.66,3.64
		C5.23,2.74,4.17,2.37,3.3,2.81C2.43,3.25,2.07,4.34,2.5,5.24l6.79,14.24c0.31,0.64,0.93,1.01,1.58,1.01c0.04,0,0.08,0,0.12-0.01
		c0.04,0,0.08,0.01,0.12,0.01c0.65,0,1.28-0.37,1.58-1.01l1.3-2.72h7.6l1.59,3.48h4.27L19.48,3.64L19.48,3.64z M15.72,13.13
		l2.15-4.51l2.06,4.51H15.72z"/>
	<path class="st0" d="M49.79,14.28C49.93,13.7,50,13.09,50,12.47c0-0.62-0.07-1.23-0.21-1.81C49,7.24,46.01,4.7,42.46,4.7
		s-6.54,2.54-7.33,5.96c-0.14,0.58-0.21,1.19-0.21,1.81c0,0.62,0.07,1.23,0.21,1.81c0.2,0.84,0.52,1.62,0.96,2.33h-5.19V4.18
		c0-1-0.79-1.81-1.76-1.81s-1.76,0.81-1.76,1.81v16.05h15.08c1.03,0,2-0.21,2.9-0.6c1-0.43,1.42-1.65,0.94-2.65
		c-0.4-0.82-1.36-1.14-2.17-0.75c-0.51,0.24-1.07,0.37-1.66,0.37c-1.59,0-2.96-0.95-3.61-2.33h7.22H49.79z M38.85,10.65
		c0.65-1.38,2.03-2.33,3.61-2.33s2.96,0.95,3.61,2.33H38.85z"/>
</g>
</svg>
