<?xml version="1.0" encoding="utf-8"?>
<!-- Generator: Adobe Illustrator 27.0.0, SVG Export Plug-In . SVG Version: 6.00 Build 0)  -->
<svg version="1.1" id="Layer_1" xmlns="http://www.w3.org/2000/svg" xmlns:xlink="http://www.w3.org/1999/xlink" x="0px" y="0px"
	 viewBox="0 0 95.21 29.7" style="enable-background:new 0 0 95.21 29.7;" xml:space="preserve">
<style type="text/css">
	.st0{fill:#241F30;}
</style>
<g>
	<path class="st0" d="M24.47,1.77c-1.22-0.6-2.69-0.1-3.28,1.12L13.3,18.96L5.41,2.89c-0.6-1.22-2.07-1.72-3.28-1.12
		c-1.22,0.6-1.72,2.07-1.12,3.28l9.91,20.18c0.43,0.87,1.3,1.37,2.2,1.37c0.06,0,0.12-0.01,0.18-0.01c0.06,0,0.12,0.01,0.18,0.01
		c0.91,0,1.78-0.5,2.2-1.37l9.91-20.18C26.19,3.84,25.69,2.37,24.47,1.77z"/>
	<path class="st0" d="M38.8,2.89c-0.45-0.93-1.42-1.44-2.39-1.36c-0.97-0.07-1.93,0.44-2.39,1.36l-9.91,20.18
		c-0.6,1.22-0.1,2.69,1.12,3.28c0.35,0.17,0.72,0.25,1.08,0.25c0.91,0,1.78-0.5,2.2-1.37l2.6-5.3h10.41c0.05,0,0.1,0,0.16-0.01
		l2.61,5.31c0.43,0.87,1.3,1.37,2.2,1.37c0.36,0,0.73-0.08,1.08-0.25c1.22-0.6,1.72-2.07,1.12-3.28L38.8,2.89z M33.54,15.02
		l2.87-5.86l2.87,5.86H33.54z"/>
	<path class="st0" d="M65.95,21.33h-8.19V3.61c0-1.36-1.1-2.45-2.45-2.45s-2.45,1.1-2.45,2.45v22.63h13.09
		c1.36,0,2.45-1.1,2.45-2.45S67.31,21.33,65.95,21.33z"/>
	<path class="st0" d="M80.85,1.15C80.85,1.15,80.85,1.15,80.85,1.15c-3.23,0-6.27,1.26-8.55,3.54c-1.86,1.86-3.04,4.23-3.42,6.79
		c-0.68,3.36-0.13,6.95,1.82,9.73c2.27,3.23,5.71,4.93,9.32,4.93c2.42,0,4.9-0.76,7.15-2.34c1.11-0.78,1.38-2.31,0.6-3.42
		c-0.78-1.11-2.31-1.38-3.42-0.6c-3.36,2.36-7.41,1.77-9.63-1.39c-0.45-0.64-0.76-1.38-0.95-2.17l19.02,0.01l0.13-2.32
		c0.01-0.22,0.02-0.44,0.02-0.66c0,0,0,0,0,0C92.94,6.58,87.52,1.15,80.85,1.15z M74.05,11.32c0.53-1.6,1.48-3.03,2.78-3.95
		c0.12-0.08,0.22-0.18,0.32-0.27c1.11-0.67,2.37-1.03,3.7-1.03c0,0,0,0,0,0c3.29,0,6.08,2.23,6.92,5.26L74.05,11.32z"/>
</g>
</svg>
