<?xml version="1.0" encoding="UTF-8"?>
<svg id="Layer_1" data-name="Layer 1" xmlns="http://www.w3.org/2000/svg" viewBox="0 0 287.17 109.15">
  <defs>
    <style>
      .cls-1 {
        fill: #241f30;
      }
    </style>
  </defs>
  <path class="cls-1" d="M103.38,7.67c-1-2.1-2.64-3.88-4.83-4.99-5.25-2.66-11.61-.42-14.18,4.99L52.24,75.05,20.12,7.66C17.54,2.25,11.18,.02,5.93,2.68,.68,5.33-1.49,11.87,1.09,17.28L41.97,103.04c1.84,3.86,5.61,6.11,9.52,6.11,.25,0,.5-.03,.75-.04,.25,.02,.5,.04,.75,.04,3.92,0,7.68-2.24,9.52-6.11l7.82-16.4h45.77l9.58,20.94h25.74L103.39,7.66h0Zm-22.65,57.16l12.95-27.17,12.43,27.17h-25.38Z"/>
  <path class="cls-1" d="M285.91,71.73c.82-3.5,1.26-7.16,1.26-10.91s-.44-7.41-1.26-10.91c-4.79-20.54-22.77-35.86-44.16-35.86s-39.37,15.32-44.16,35.86c-.82,3.5-1.26,7.16-1.26,10.91s.44,7.41,1.26,10.91c1.18,5.04,3.15,9.77,5.77,14.03h-31.26V10.91c0-6.03-4.74-10.91-10.6-10.91s-10.6,4.89-10.6,10.91V107.59h90.85c6.18,0,12.07-1.28,17.44-3.59,6-2.58,8.55-9.94,5.64-15.93-2.41-4.96-8.19-6.84-13.09-4.54-3.04,1.43-6.42,2.23-9.98,2.23-9.55,0-17.81-5.74-21.75-14.03h65.91Zm-65.91-21.83c3.94-8.29,12.2-14.03,21.75-14.03s17.81,5.74,21.75,14.03h-43.5Z"/>
</svg>