<?xml version="1.0" encoding="utf-8"?>
<!-- Generator: Adobe Illustrator 26.0.3, SVG Export Plug-In . SVG Version: 6.00 Build 0)  -->
<svg version="1.1" id="Layer_1" xmlns="http://www.w3.org/2000/svg" xmlns:xlink="http://www.w3.org/1999/xlink" x="0px" y="0px"
	 viewBox="0 0 491 686" style="enable-background:new 0 0 491 686;" xml:space="preserve">
<style type="text/css">
	.st0{fill:#235CDB;}
	.st1{fill:#2246C6;}
	.st2{fill:#2031AF;}
	.st3{fill:#0F0C8E;}
	.st4{fill:url(#SVGID_1_);}
	.st5{clip-path:url(#SVGID_00000004527777242226128480000002577044040831694489_);}
	.st6{clip-path:url(#SVGID_00000181790253225755244200000008077905987415336621_);}
	.st7{fill:#001635;}
	.st8{fill:#B8BFFF;}
</style>
<g>
	<g>
		<g>
			
				<image style="overflow:visible;opacity:0.28;enable-background:new    ;" width="494" height="656" xlink:href="F8AEE60BA392949D.png"  transform="matrix(1 0 0 1 0 27)">
			</image>
			<g>
				<path class="st0" d="M475.4,431.2c-8.7-36.8-26-79.4-55.9-128.4L269.1,38.3c-3-5.2-8.6-7.5-13.8-6.7c-5.6-1.8-12.2,0.1-15.7,5.7
					L78.9,295.8C47.2,343.7,28.2,385.6,18.1,422C-9.5,521.5,50.7,624,150.9,649c29.5,7.3,63,13.1,90.1,12.1c0,0.1,0,0.2,0,0.2
					c27.4,2.6,62.2-2,92.9-8.4C435,631.9,499.1,531.7,475.4,431.2z"/>
			</g>
		</g>
		<g>
			
				<image style="overflow:visible;opacity:0.33;enable-background:new    ;" width="471" height="622" xlink:href="F8AEE60BA392949F.png"  transform="matrix(1 0 0 1 10 42)">
			</image>
			<g>
				<path class="st1" d="M461.6,425.9c-8.1-34.4-24.4-74.3-52.3-120.3l-141-247.8c-2.8-4.9-8-7-13-6.3c-5.2-1.7-11.4,0.1-14.7,5.4
					L90.2,299c-29.7,44.8-47.5,84.1-56.9,118.1C7.4,510.4,63.7,606.4,157.6,629.8c27.7,6.9,59,12.3,84.4,11.3c0,0.1,0,0.2,0,0.2
					c25.7,2.4,58.3-1.9,87-7.8C423.7,613.8,483.8,520,461.6,425.9z"/>
			</g>
		</g>
		<g>
			
				<image style="overflow:visible;opacity:0.42;enable-background:new    ;" width="430" height="567" xlink:href="F8AEE60BA392949A.png"  transform="matrix(1 0 0 1 28 73)">
			</image>
			<g>
				<path class="st2" d="M439.1,422c-7.4-31.2-22.1-67.4-47.4-109.1L263.9,88.2c-2.5-4.4-7.3-6.3-11.8-5.7
					c-4.8-1.5-10.4,0.1-13.3,4.9L102.3,307c-26.9,40.7-43.1,76.2-51.6,107.1c-23.4,84.5,27.7,171.6,112.8,192.8
					c25.1,6.2,53.5,11.2,76.6,10.2c0,0.1,0,0.1,0,0.2c23.3,2.2,52.9-1.7,78.9-7.1C404.8,592.4,459.3,507.3,439.1,422z"/>
			</g>
		</g>
		<g>
			
				<image style="overflow:visible;opacity:0.42;enable-background:new    ;" width="383" height="503" xlink:href="F8AEE60BA392949B.png"  transform="matrix(1 0 0 1 54 115)">
			</image>
			<g>
				<path class="st3" d="M418.7,423c-6.5-27.5-19.5-59.5-41.9-96.2L264,128.5c-2.2-3.9-6.4-5.6-10.4-5c-4.2-1.3-9.1,0.1-11.8,4.3
					L121.5,321.5c-23.8,35.9-38,67.3-45.6,94.6c-20.7,74.6,24.4,151.5,99.5,170.1c22.1,5.5,47.2,9.8,67.6,9c0,0.1,0,0.1,0,0.2
					c20.6,2,46.7-1.5,69.7-6.3C388.4,573.4,436.5,498.4,418.7,423z"/>
			</g>
		</g>
		<g>
			
				<image style="overflow:visible;opacity:0.42;enable-background:new    ;" width="336" height="441" xlink:href="F8AEE60BA39294A5.png"  transform="matrix(1 0 0 1 77 146)">
			</image>
			<g>
				
					<linearGradient id="SVGID_1_" gradientUnits="userSpaceOnUse" x1="243.8989" y1="123.17" x2="251.379" y2="529.2298" gradientTransform="matrix(1 0 0 -1 0 688)">
					<stop  offset="0" style="stop-color:#1B3192"/>
					<stop  offset="0.8227" style="stop-color:#000055"/>
				</linearGradient>
				<path class="st4" d="M395.7,414.7c-5.6-23.9-17-51.7-36.4-83.6l-98-172.3c-1.9-3.4-5.6-4.9-9-4.4c-3.6-1.2-7.9,0.1-10.2,3.7
					L137.4,326.5c-20.7,31.2-33,58.5-39.6,82.1c-18,64.8,21.2,131.6,86.5,147.8c19.2,4.8,41,8.5,58.7,7.8c0,0,0,0.1,0,0.2
					c17.9,1.7,40.5-1.3,60.5-5.5C369.4,545.4,411.1,480.1,395.7,414.7z"/>
			</g>
		</g>
	</g>
	<g>
		<g>
			<g>
				<defs>
					<path id="SVGID_00000010279813532148550890000011211545348947607220_" d="M157,475c-18.8,0-38.5,0-58.2,0.7
						c12,38.6,43.3,70.3,85.5,80.8c19.2,4.8,41,8.5,58.7,7.8c0,0,0,0.1,0,0.2c17.9,1.7,40.5-1.3,60.5-5.5c45-9.4,78.8-42.8,90.7-84
						C315.8,467.1,235.5,473.5,157,475z"/>
				</defs>
				<clipPath id="SVGID_00000088104321739477371880000005891456605459208860_">
					<use xlink:href="#SVGID_00000010279813532148550890000011211545348947607220_"  style="overflow:visible;"/>
				</clipPath>
				<g style="clip-path:url(#SVGID_00000088104321739477371880000005891456605459208860_);">
					<g>
						<g>
							<defs>
								<rect id="SVGID_00000039822484437880388330000012419554638022932391_" x="93.8" y="466.1" width="305.4" height="103.9"/>
							</defs>
							<clipPath id="SVGID_00000075858078668699037910000007712811872335430018_">
								<use xlink:href="#SVGID_00000039822484437880388330000012419554638022932391_"  style="overflow:visible;"/>
							</clipPath>
							<g style="clip-path:url(#SVGID_00000075858078668699037910000007712811872335430018_);">
								
									<image style="overflow:visible;enable-background:new    ;" width="640" height="221" xlink:href="F8AEE60BA39294A7.jpeg"  transform="matrix(0.4713 0 0 0.4713 95.7001 465.88)">
								</image>
							</g>
						</g>
					</g>
				</g>
			</g>
		</g>
	</g>
	<path class="st7" d="M99,413l22.2-35.2c0.5-1.1,1.5-1.8,2.7-1.8h7c1.7,0,3,1.4,3,3V405c0,1.7,1.4,3,3,3h1.4c0.4,0,0.7-0.1,1.1-0.2
		l3.4-1.3c2-0.7,4.1,0.7,4.1,2.8v13.7c0,2,1.9,3.4,3.8,2.9l5.6-1.4c1.5-0.4,3.1,0.5,3.6,1.9l2.9,8.1c0.1,0.2,0.1,0.5,0.2,0.8
		l1.6,17.5c0.3,3.6,5.5,3.7,6,0.1l4.5-33.8c0.3-2.5,3.4-3.5,5.2-1.7l19.8,20.6c0.5,0.6,0.9,1.3,0.9,2.1v11.3c0,1,0.4,1.9,1.2,2.4
		l1.6,1.2c0.7,0.5,1.2,1.4,1.2,2.3L217,473c0.1,1.3-29,14-7.9,29.6l5.4,1.6c1.4,0.4,2.4,1.9,2.1,3.4l-30,2
		c-12.1,0.8-23.5,5.8-32.2,14.2C147.8,530,140.9,536,140,535l-9-8l-8-8l-13-18c-7.1-7.1-15.1-31.8-15.3-41.8l-0.2-19.3
		c-0.1-4.8,0.5-9.7,1.6-14.4l0,0L99,413"/>
	<path class="st7" d="M392.5,418l-22.2-35.2c-0.5-1.1-1.5-1.8-2.7-1.8h-7c-1.7,0-3,1.4-3,3V410c0,1.7-1.4,3-3,3H353
		c-0.4,0-0.7-0.1-1.1-0.2l-3.4-1.3c-2-0.7-4.1,0.7-4.1,2.8v13.7c0,2-1.9,3.4-3.8,2.9l-5.6-1.4c-1.5-0.4-3,0.5-3.6,1.9l-2.9,8.1
		c-0.1,0.2-0.1,0.5-0.2,0.8l-1.6,17.5c-0.3,3.6-5.5,3.7-6,0.1l-4.5-33.8c-0.3-2.5-3.4-3.5-5.2-1.7l-19.8,20.6
		c-0.5,0.6-0.9,1.3-0.9,2.1v11.3c0,1-0.5,1.9-1.2,2.4l-1.6,1.2c-0.7,0.5-1.2,1.4-1.2,2.3L272,472c-14-1-16,21-16,21l21,16.2
		c-1.5,0.4-2.4,1.9-2.1,3.4l30,2c12.1,0.8,23.5,5.8,32.2,14.2c6.5,6.2,13.5,12.2,14.3,11.2l9-8l8-8l13-18
		c7.1-7.1,15.1-31.8,15.3-41.8l0.2-19.3c0.1-4.8-0.5-9.7-1.6-14.4l0,0L392.5,418"/>
	<circle class="st8" cx="214.5" cy="279.5" r="2.5"/>
	<circle class="st8" cx="243.5" cy="306.5" r="2.5"/>
	<circle class="st8" cx="278.5" cy="244.5" r="2.5"/>
	<circle class="st8" cx="320.5" cy="316.5" r="2.5"/>
	<circle class="st8" cx="222.5" cy="391.5" r="2.5"/>
	<circle class="st8" cx="288.5" cy="367.5" r="4.5"/>
	<circle class="st8" cx="232.5" cy="212.5" r="4.5"/>
	<circle class="st8" cx="163.5" cy="334.5" r="1.5"/>
	<circle class="st8" cx="228.5" cy="359.5" r="1.5"/>
	<circle class="st8" cx="336.5" cy="396.5" r="1.5"/>
</g>
</svg>
